<?xml version="1.0" encoding="UTF-8"?><svg id="Layer_2" xmlns="http://www.w3.org/2000/svg" viewBox="0 0 85.76 85.72"><g id="Layer_1-2"><path d="M42.88,85.72C19.24,85.72,0,66.5,0,42.86S19.24,0,42.88,0s42.88,19.23,42.88,42.86-19.24,42.86-42.88,42.86ZM42.88,3.48C21.16,3.48,3.48,21.15,3.48,42.86s17.67,39.38,39.4,39.38,39.4-17.67,39.4-39.38S64.6,3.48,42.88,3.48ZM33.23,41.99c0-5.33,4.32-9.65,9.65-9.65s9.65,4.32,9.65,9.65-4.32,9.64-9.65,9.64-9.65-4.32-9.65-9.64h0ZM28.02,41.99c0,8.21,6.66,14.86,14.86,14.86s14.87-6.65,14.87-14.86-6.65-14.86-14.87-14.86-14.86,6.65-14.86,14.86h0ZM54.86,26.55c0,1.92,1.56,3.47,3.47,3.47s3.47-1.56,3.47-3.47-1.56-3.47-3.47-3.47-3.47,1.55-3.47,3.47h0ZM31.18,65.55c-2.82-.13-4.35-.6-5.37-1-1.35-.53-2.32-1.15-3.33-2.17-1.01-1.01-1.64-1.98-2.17-3.33-.4-1.02-.87-2.55-1-5.37-.14-3.05-.17-3.97-.17-11.69s.03-8.64.17-11.69c.13-2.82.6-4.35,1-5.37.53-1.35,1.15-2.31,2.17-3.33,1.01-1.01,1.98-1.64,3.33-2.16,1.02-.4,2.55-.87,5.37-1,3.05-.14,3.97-.17,11.7-.17s8.65.03,11.7.17c2.82.13,4.35.6,5.37,1,1.35.52,2.32,1.15,3.33,2.16,1.01,1.01,1.64,1.98,2.16,3.33.4,1.02.87,2.55,1,5.37.14,3.05.17,3.97.17,11.69s-.03,8.64-.17,11.69c-.13,2.82-.6,4.35-1,5.37-.53,1.35-1.15,2.31-2.16,3.33-1.01,1.01-1.98,1.64-3.33,2.17-1.02.4-2.55.87-5.37,1-3.05.14-3.97.17-11.7.17s-8.64-.03-11.7-.17h0ZM30.95,13.23c-3.08.14-5.19.63-7.03,1.34-1.9.74-3.52,1.73-5.13,3.34-1.61,1.61-2.6,3.22-3.34,5.13-.72,1.84-1.21,3.94-1.35,7.02-.14,3.09-.18,4.07-.18,11.93s.03,8.84.18,11.93c.14,3.08.63,5.18,1.35,7.02.74,1.9,1.73,3.52,3.34,5.13,1.61,1.61,3.22,2.6,5.13,3.34,1.84.72,3.94,1.2,7.03,1.34,3.09.14,4.07.17,11.93.17s8.85-.03,11.94-.17c3.08-.14,5.18-.63,7.03-1.34,1.9-.74,3.52-1.73,5.13-3.34,1.61-1.61,2.6-3.22,3.34-5.13.72-1.84,1.21-3.94,1.35-7.02.14-3.09.17-4.07.17-11.93s-.03-8.84-.17-11.93c-.14-3.08-.63-5.18-1.35-7.02-.74-1.9-1.73-3.52-3.34-5.13-1.61-1.61-3.22-2.6-5.13-3.34-1.84-.72-3.95-1.2-7.03-1.34-3.09-.14-4.07-.18-11.94-.18s-8.85.03-11.93.18h0Z" fill="#e82928"/></g></svg>