<?xml version="1.0" encoding="UTF-8"?><svg id="Layer_2" xmlns="http://www.w3.org/2000/svg" viewBox="0 0 85.76 85.72"><g id="Layer_1-2"><path d="M42.88,85.72C19.24,85.72,0,66.5,0,42.86S19.24,0,42.88,0s42.88,19.23,42.88,42.86-19.23,42.86-42.88,42.86ZM42.88,3.48C21.16,3.48,3.48,21.15,3.48,42.86s17.67,39.38,39.4,39.38,39.4-17.67,39.4-39.38S64.6,3.48,42.88,3.48ZM17.24,33.71h10.9v35.05h-10.9v-35.05ZM22.69,16.29c3.48,0,6.31,2.83,6.31,6.32s-2.83,6.31-6.31,6.31-6.32-2.82-6.32-6.31,2.82-6.32,6.32-6.32h0ZM34.97,68.76h10.89v-17.33c0-4.57.87-9,6.54-9s5.66,5.23,5.66,9.29v17.04h10.89v-19.22c0-9.43-2.04-16.69-13.07-16.69-5.3,0-8.86,2.9-10.31,5.66h-.15v-4.79h-10.45v35.05Z" fill="#e82928"/></g></svg>