<?xml version="1.0" encoding="UTF-8"?><svg id="Layer_2" xmlns="http://www.w3.org/2000/svg" viewBox="0 0 85.76 85.72"><g id="Layer_1-2"><path d="M74.08,61.32V24.28l-18.87,16.41c-.35-1.04-.82-2.02-1.41-2.93l16.17-13.86H15.8l16.61,14.24c-.57.93-1.02,1.94-1.33,3.01L11.68,24.29v37.03l18.91-16.07c.05,1.06.21,2.08.5,3.05l-15.77,13.52h55.09l-15.24-13.07c.32-.94.54-1.93.63-2.96l18.27,15.52ZM49.83,53.91c-1.67.96-3.71,1.46-6.11,1.46s-4.33-.42-6.03-1.23c-1.69-.82-2.95-2.03-3.77-3.62-.83-1.6-1.25-3.33-1.25-5.21,0-2.06.47-3.98,1.41-5.75.94-1.78,2.22-3.11,3.84-4,1.64-.89,3.49-1.34,5.59-1.34,1.77,0,3.35.36,4.73,1.07,1.38.72,2.44,1.74,3.17,3.06.73,1.33,1.09,2.76,1.09,4.33,0,1.87-.55,3.55-1.66,5.06-1.39,1.9-3.17,2.85-5.34,2.85-.59,0-1.03-.1-1.33-.32-.29-.21-.49-.52-.59-.92-.83.82-1.79,1.24-2.87,1.24-1.17,0-2.14-.42-2.92-1.25-.77-.84-1.16-1.95-1.16-3.34,0-1.72.46-3.28,1.39-4.7,1.14-1.72,2.57-2.59,4.34-2.59,1.25,0,2.18.49,2.77,1.49l.27-1.22h2.78l-1.59,7.85c-.1.5-.15.82-.15.96,0,.19.04.32.12.42.08.09.18.13.29.13.34,0,.78-.21,1.31-.64.72-.55,1.3-1.3,1.75-2.24.44-.93.67-1.91.67-2.9,0-1.8-.63-3.3-1.89-4.52-1.25-1.21-3-1.81-5.25-1.81-1.91,0-3.54.41-4.86,1.21-1.33.81-2.33,1.95-3.01,3.42s-1.01,3-1.01,4.59.38,2.95,1.13,4.22c.75,1.27,1.8,2.19,3.16,2.78,1.36.58,2.91.87,4.65.87s3.14-.24,4.35-.73c1.2-.49,2.19-1.23,2.93-2.2h2.25c-.71,1.49-1.79,2.66-3.25,3.51ZM44.05,41.36c.36.44.55,1.07.55,1.9,0,.75-.13,1.55-.41,2.4-.27.85-.6,1.5-.97,1.95-.25.31-.52.54-.78.69-.35.21-.73.31-1.13.31-.53,0-.98-.22-1.35-.66-.36-.44-.54-1.13-.54-2.06h0c0-.69.13-1.48.39-2.38.27-.9.65-1.6,1.16-2.08.52-.48,1.07-.73,1.68-.73.56,0,1.03.23,1.4.67ZM39.57,85.6C18.62,84.02,1.7,67.11.12,46.15-1.76,21.04,18.15,0,42.88,0s42.88,19.23,42.88,42.86-21.06,44.63-46.19,42.74ZM46.49,3.64C21.94,1.45,1.46,21.92,3.64,46.45c1.68,18.81,16.82,33.94,35.63,35.62,24.55,2.2,45.03-18.27,42.85-42.81-1.68-18.81-16.82-33.94-35.63-35.63Z" fill="#e82c2a"/></g></svg>